<svg xmlns="http://www.w3.org/2000/svg" viewBox="0 0 119.91 120.19"><title>Asset 1</title><g id="Layer_2" data-name="Layer 2"><g id="Layer_1-2" data-name="Layer 1"><g id="svg_1" data-name="svg 1"><path id="svg_2" data-name="svg 2" d="M13.7,3.57c0,3.23-.86,3.71-6.85,3.71H0V63.1l6.85-.65c5.48-.48,6.85-.16,6.85,1.94S15.58,67,23.12,67c8.23,0,9.42.32,9.42,3.23,0,2.58-1.2,3.23-5.14,3.23-4.63,0-5.14.32-4.11,4s.51,4-4.28,4c-4.11,0-5.31.65-5.31,3.23,0,2.42-1.2,3.23-4.28,3.23-2.74,0-4.28,1-4.28,2.42s1.54,2.42,4.28,2.42,4.28-1,4.28-2.42c0-1.94,2.23-2.42,9.42-2.42h9.42v23.7l-5.14-.81c-4.63-.65-5.14-.32-4.8,3.06.51,3.39-.17,3.87-4.11,3.39-2.74-.32-4.8.16-4.8,1.13,0,1.13,7,1.77,20.56,1.77H54.81V110c0-10,0-10.16,4.63-9.84,4.46.16,4.63.32,4.11,10l-.34,10H83.94c13.37,0,20.39-.65,19.71-1.61-.51-1-3.43-1.61-6.17-1.61-3.94,0-5-.65-4.63-2.9.34-2.1-.69-2.74-5-2.58l-5.65.32V87.93h12c9.6,0,12,.48,12,2.42,0,1.45,1.54,2.42,4.28,2.42s4.28-1,4.28-2.42-1.54-2.42-4.28-2.42c-3.08,0-4.28-.81-4.28-3.23,0-2.74-1.2-3.23-7-3.23-6.68,0-7-.32-6.34-4,.86-3.71.34-4-4.8-4-4.63,0-5.83-.65-5.83-3.23,0-2.9,1.2-3.23,10.28-3.23,8.4,0,10.28-.48,10.28-2.58,0-2.26,1.54-2.58,8.57-1.94l8.57.81v-56h-6.85c-6,0-6.85-.48-6.85-3.71V0H13.7V3.57Zm90,5.32c1.71,1.77,4.46,3.23,6.34,3.23,2.91,0,3.08,1.77,3.08,22.58,0,14-.69,22.58-1.71,22.58s-1.71-7.74-1.71-19.84q0-19.85-2.06-21.78C106.07,14.21,93,13.72,60,13.72c-56,0-51.92-2.1-51.06,24.84.34,14.2,0,18.71-1.54,18.71-1.71,0-2.23-5.65-2.23-22.58V12.11H9.08a11.66,11.66,0,0,0,7.2-3.23C19.19,5.82,21.59,5.65,60,5.65s40.77.18,43.69,3.24Zm2.57,28.23V55.67h-7c-6.17,0-6.85.32-6.34,3.55s-.17,3.71-5,3.23c-4.28-.48-5.65,0-5.65,1.94,0,2.26-3.43,2.58-24.85,2.58s-24.85-.32-24.85-2.58c0-1.77-1.37-2.42-4.63-1.94-4.11.48-4.8,0-4.46-3.23.34-2.9-.34-3.55-4.63-3.55H13.69V18.57h92.55Zm-66.83,44c0,4.19.86,8.55,2.06,9.68,1.37,1.29,7.71,1.94,17.14,1.94,17,0,18.51-1,18.51-12.74,0-6.29.17-6.45,3.08-3.87A45.16,45.16,0,0,0,86.71,81c3.08,1.77,3.08,1.94-.34,1.94-6.51.16-7.88,3.87-7.2,18.71l.51,13.87-5.14-.48c-4.8-.48-5.14-1-5.65-8.07C68.38,99.4,64.43,94.4,58.78,94.4c-5,0-9.08,6.29-9.08,13.71v7.26H36.17l-.51-15c-.51-13.55-.86-15-4.28-16.45-4.46-1.77-5.14-4-1.37-4,1.37,0,3.43-1.45,4.63-3.23,3.4-5.18,4.77-3.89,4.77,4.5ZM72,80.68v7.26H44.55V73.42H72v7.26Z"/><path id="svg_3" data-name="svg 3" d="M44.55,34.7c0,9.68,0,9.68,5.14,9.68s5.14,0,5.14-9.68,0-9.68-5.14-9.68S44.55,25,44.55,34.7Z"/><path id="svg_4" data-name="svg 4" d="M63.4,34.7c0,9.19.17,9.68,4.28,9.68S72,43.9,72,34.7,71.79,25,67.68,25,63.4,25.51,63.4,34.7Z"/><path id="svg_5" data-name="svg 5" d="M44.55,59.22c0,3.55.69,3.71,13.71,3.71S72,62.77,72,59.22c0-3.39-.69-3.55-13.71-3.55S44.55,55.84,44.55,59.22Z"/></g></g></g></svg>